<svg xmlns="http://www.w3.org/2000/svg" viewBox="0 0 600 661">
  <defs>
    <radialGradient id="exampleGradient">
      <stop offset="14%" stop-color="#FED141">
		<animate attributeName='stop-color' values='#FED141;#FF9D6E;#F67599;#DD7FD3;#9595D2;#8bb8e8;#64CCC9;#FED141;' dur="7s" repeatCount='indefinite' />
	  </stop>
	  <stop offset="28%" stop-color="#FF9D6E">
		<animate attributeName='stop-color' values='#FF9D6E;#F67599;#DD7FD3;#9595D2;#8bb8e8;#64CCC9;#FED141;#FF9D6E' dur="7s" repeatCount='indefinite' />
	  </stop>
	  <stop offset="42%" stop-color="#F67599">
		<animate attributeName='stop-color' values='#F67599;#DD7FD3;#9595D2;#8bb8e8;#64CCC9;#FED141;#FF9D6E;#F67599' dur="7s" repeatCount='indefinite' />
	  </stop>
	  <stop offset="56%" stop-color="#DD7FD3">
		<animate attributeName='stop-color' values='#DD7FD3;#9595D2;#8bb8e8;#64CCC9;#FED141;#FF9D6E;#F67599;#DD7FD3;' dur="7s" repeatCount='indefinite' />
	  </stop>
	  <stop offset="70%" stop-color="#9595D2">
		<animate attributeName='stop-color' values='#9595D2;#8bb8e8;#64CCC9;#FED141;#FF9D6E;#F67599;#DD7FD3;#9595D2;' dur="7s" repeatCount='indefinite' />
	  </stop>
	  <stop offset="84%" stop-color="#8bb8e8">
		<animate attributeName='stop-color' values='#8bb8e8;#64CCC9;#FED141;#FF9D6E;#F67599;#DD7FD3;#9595D2;#8bb8e8;' dur="7s" repeatCount='indefinite' />
	  </stop>
      <stop offset="98%" stop-color="#64CCC9">
		<animate attributeName='stop-color' values='#64CCC9;#FED141;#FF9D6E;#F67599;#DD7FD3;#9595D2;#8bb8e8;#64CCC9;' dur="7s" repeatCount='indefinite' />
	  </stop>
    </radialGradient>
  </defs>
 <g id="dragonfly"><path fill="url(#exampleGradient)" d="M578 162c1-2 1-4-3-4-2-1-4-1-6 0-2 1-4 2-6 2-8 2-14 7-22 10-7 3-13 8-21 11-7 3-14 7-21 11-5 3-9 6-15 9-3 2-6 4-10 5-5 3-10 6-16 9-11 6-22 12-33 18-5 2-10 4-15 6-12 7-24 12-37 18-14 7-28 13-43 19-7 4-14 7-22 10-7 3-13 6-20 9-6 3-13 5-16 13 0 0 0 0-1 0 0 0-1 0-2 0-4-2-8-1-11 0-7 4-14 8-21 11-6 3-11 6-16 8-5 2-11 3-17 4-12 2-23 2-36 0-3-1-7 0-10 1-7 2-12 6-16 12-1 1-2 2-2 4 0 4 0 8 2 12 0 2 0 4-2 6-1 3-1 7 2 10 2 5 4 9 6 14 2 3 4 6 8 6 2 1 4 2 5 4 0 1 1 2 1 3 4 6 14 9 20 7 8-3 15-8 18-16 1-2 2-4 4-6 6-7 13-15 20-22 6-7 13-11 20-15 8-5 17-9 25-14 6-3 11-6 13-13 3 0 5 0 8-1 7-2 14-5 21-9 3-2 7-4 11-6 12-7 24-13 36-20 9-5 18-11 26-16 7-4 14-8 21-12 8-4 15-8 23-12 6-4 13-7 20-11 4-2 8-4 12-7 3-1 5-2 7-3 10-6 19-11 28-16 6-3 12-6 17-9 9-5 18-10 27-15 4-2 9-4 14-7 4-2 8-5 12-8 4-2 8-5 12-9 0 0 0 0 1 0z m-278 363c4-2 9-4 14-7 8-4 15-9 22-14 0 0 1 0 1 0-11 10-23 20-38 28 0-1-1-2-1-3-1-2 0-3 3-4z m12 33c3-1 6-2 9-3 5-3 10-5 14-8 7-6 13-11 20-16 0 0 1 0 2-1 1 3 0 5-3 6-4 3-9 6-13 9-7 6-16 10-24 15-2 1-4 2-7 2-1-2 0-3 2-3z m-47-97c-3 2-3 5-1 8 4 9 8 17 13 26 4 9 9 19 13 29 2 5 4 10 6 16 4 8 7 17 10 25 3 8 6 17 9 25 1 1 1 2 2 3 1 2 3 2 5 0 4-3 9-7 14-10 11-6 22-12 34-18 2-1 3-3 2-4-1-2-3-2-6-1-6 4-13 8-19 11-7 4-15 7-22 10-3 1-6 2-9 2-1-2 0-3 2-4 2-1 3-1 4-2 7-3 14-6 21-9 8-4 16-9 24-13 3-2 3-2 2-5 0-1 0-1-1-2 0-1-1-3-2-3-1 0-3 1-3 2-2 2-4 3-6 4-1 1-3 2-4 3-10 6-19 11-29 15-1 0-2 1-3 1 1-2 2-2 4-3 12-9 24-17 36-26 3-2 4-5 2-8-1-3-2-6-4-10 0-1-1-3-1-4-1-1-2-2-2-2-1 0-2 1-3 1 0 1-1 3-1 4-2 3-4 6-6 8-5 4-9 8-14 12-6 3-12 7-18 10-1 1-3 2-5 2-1-2-1-3 1-3 3-2 5-4 8-6 6-5 13-10 19-16 5-4 9-9 14-14 3-3 3-3 1-7-1-2-3-3-5-1-3 5-6 8-10 11-8 7-15 13-23 19-2 2-4 4-7 5-2 1-3 0-4-2 0-1 0-2 3-3 2-2 6-4 8-7 11-8 22-16 33-24 2-2 3-4 2-6-1-2-2-5-5-7-1-3-3-3-5-1-2 2-4 4-6 5-11 10-22 17-36 21-1 1-2 1-4-1 1-1 2-2 5-3 9-5 17-10 26-16 4-3 9-6 13-8 3-2 4-4 3-6-1-1-1-3-3-4-2-2-3-2-4 0-2 1-3 2-4 4-6 4-11 8-16 11-6 5-13 9-20 14-1 0-3 1-4 1-1-3 1-4 3-5 2-2 4-4 7-5 4-3 8-6 12-8 2-1 3-2 3-5-1 0-1 0-3 1-7 1-13 3-20 4-3 1-7 1-11 0 2-2 3-3 7-3 5-2 10-3 15-4 11-2 21-7 31-12 1-1 2-2 2-2-1-3-1-6-3-8 0-2-2-2-3-1-1 0-2 1-3 2-2 1-4 3-6 5-6 3-13 6-19 9-4 2-9 3-14 5-2 1-4 2-6 3-1 0-3 1-4 0-1-2 0-3 2-4 1-1 2-2 4-3 5-3 10-5 16-7 4-1 8-2 11-4 5-2 10-5 15-9 6-3 5-3 3-8 0 0-1-1-2-1-1-1-2-1-3 0-1 1-2 2-3 2-4 4-10 6-15 9-10 4-20 8-28 16 0 1-1 1-2 2-3-4-3-5 1-7 0-1 1-1 1-1 8-6 16-11 26-14 6-2 12-5 17-9 4-3 5-4 3-9-2-3-3-3-6 0-2 2-4 5-7 6-6 4-11 7-17 10-7 4-13 8-19 13-1 0-2 1-4 2-3-4-3-5 1-8 1-1 2-1 3-2 5-3 11-6 17-8 2-1 4-3 7-4 6-4 12-8 18-12 2-1 3-3 2-5-2-3-3-6-7-8-14 13-30 21-49 25 8-5 14-9 22-13 8-4 14-10 21-15 0 0 1-1 1-1 1-1 1-2-1-2 0-1-1-1-2-1 0 0-1 1-2 1-2 2-5 4-7 6-9 4-17 9-25 13-4 2-8 3-12 4-2 1-3 0-3-2-1-1-1-2 2-3 1-1 1-1 2-1 6-3 12-5 18-8 8-4 16-8 23-12 1-1 3-2 3-2 1-1 2-3 1-3-1-1-2-2-4-2-1 0-2 1-3 1-4 3-8 6-13 7-6 3-11 5-18 7-3 1-8 2-12 3-1 0-2 0-4 0 0-1 0-1 1-1 1-1 2-1 3-2 5-1 9-3 14-4 11-4 21-10 31-16 1 0 1-1 1-1-1-2-3-3-5-4-2-3-2-3-5-1-1 2-3 3-5 4-2 2-5 3-7 5-10 6-20 9-31 11-2 0-3 0-5 0 0 4 0 6 3 9 2 4 3 8 5 12 3 5 5 11 8 16 2 3 3 4 6 2 6-2 11-4 17-6-2 1-3 2-5 3-3 3-7 6-10 9z m19-184c-4 3-8 7-13 10-5 4-10 6-15 9-8 5-16 7-24 10-6 2-12 5-18 8-2 1-3 1-5 2-1 0-2 0-2-2 4-3 8-5 13-7 8-4 17-8 26-12 8-4 15-8 23-12 1-1 3-2 4-2 4-2 7-4 10-6 1-1 2-1 3-2 0 2-1 3-3 4z m-99 1c12-4 24-9 37-15 1 2 2 4 2 5-5 4-32 11-39 10z m9-19c-4 1-7 2-11 3-5 1-9 2-13 3-3 1-3 0-5-2 1 0 1 0 3-1 9-2 18-7 28-11 4-2 9-3 14-5 3 0 3 0 4 4-7 3-14 6-21 9z m-17-19c-7 3-13 6-20 8-4 1-6 0-8-4 4-2 8-4 13-5 4-2 8-3 12-5 9-3 18-6 27-10 2 0 4 0 6-1 0 1 0 1-1 1-10 6-19 11-29 16z m108-9c-15 5-29 11-42 20-2 2-5 3-7 5-2 2-2 3-1 5 2 2 2 4 3 7-1 1-1 2-3 3-1 0-2-1-3-2-2-2-4-5-5-8-4-8-8-16-11-24-3-6-5-13-7-19-2-4-3-7-5-10-2-3-3-3-6-1-1 1-2 2-4 3-6 2-12 5-18 7-4 2-7 5-11 7 0 0 0 0 1 1 3-1 6-2 9-3 8-3 16-5 24-7 5-1 5 0 6 4-1 0-2 1-3 1-4 1-7 1-10 2-9 3-18 6-27 8-7 2-13 3-20 3-2 1-3 0-5-1-2 0-3 0-4 1-1 1 0 2 2 3 1 2 3 3 4 5 3 4 6 8 10 11 1 2 3 4 6 2 8-3 15-6 23-8 7-1 14-4 21-7 1-1 3-1 5-2-2 2-3 3-6 4-7 4-14 7-21 11-2 1-4 1-5 2-6 2-11 4-16 4-3 1-4 2-2 5 2 2 4 4 7 6 1 1 3 3 5 4 1 0 3-1 4-2 0 0 0 0-1 0 6-2 12-4 19-6 8-3 16-7 24-10 2-1 3-1 4 1 1 1 0 3-2 3-3 2-6 5-10 6-7 3-15 6-22 9-3 1-6 1-9 1-3 1-4 3-3 5 2 5 7 8 14 7 12-3 24-5 35-10 3-2 4-2 7 2-1 1-2 2-4 2-4 2-7 3-11 5-7 3-15 5-24 5-1 0-3 0-5 0-2 0-2 2-1 3 1 1 2 2 3 3 3 3 7 4 11 3 11-3 22-8 31-14 13-8 25-16 37-24 7-4 14-7 22-9 2 0 3-1 4 1-1 1-2 3-4 3-3 3-7 5-10 7-7 7-15 11-23 16-6 3-11 5-17 8-9 6-19 11-30 13-4 1-7 2-11 2-1 0-3 1-5 1 0 1 0 2 1 2 6 6 11 13 17 20 2-1 4-1 5-2 3-2 6-4 10-5 7-4 14-7 22-11 3-1 6-2 9-3 9-4 16-10 24-16 8-7 13-16 14-26 1-6 1-13 2-19 0-1-1-2-2-3-9 5-19 8-28 13-8 6-16 12-26 18 2-4 2-8 6-10 3-3 6-6 9-8 2-2 4-4 7-5 5-3 10-6 15-9 4-1 8-2 12-3 2-1 4-1 6-2 0-1 0-2 1-3 0-3-1-5-5-3-3 0-5 1-7 2z m71 120c-8 5-16 10-25 13-11 5-21 10-30 16-2 2-2 2-4 0 6-8 14-12 23-17 10-6 21-11 32-16 3-1 6-1 9-2-1 3-3 4-6 6z m-71 19c1 0 1-1 3-2 10-6 20-14 30-20 6-4 12-6 18-9 4-1 8-1 12-1 1-1 2 0 3 0 0 1 0 1-1 1-10 3-19 8-28 13-7 4-13 9-20 13-4 2-7 5-11 7-3 2-3 2-6-2z m-2-19c-8 3-17 7-24 12-4 3-9 7-13 9-3 2-6 4-10 5-1 0-2 0-3-1 0-2 1-3 3-3 0 0 0-1 1-1 11-5 21-12 31-20 3-2 6-3 9-5 7-4 14-7 21-9 11-4 22-5 34-5 0 0 1 0 2 1 0 0 0 0-1 0-5 1-9 3-14 4-12 3-25 7-36 13z m-6 29c-6 5-13 9-21 11-3 1-6 2-9 3 2-2 29-18 32-18 2 3 2 3-2 4z m90-41c-1 0-2-1-4-1-3-2-6-4-10-5-11-4-23-7-35-7-7-1-14-1-21 2-3 0-5 1-7 1-5 1-9 2-12 5-2 1-3 2-4 2-7 4-13 8-20 12-7 5-14 11-23 14 0 0-1 1-1 1-1 0-2 1-2 2 0 2 0 3 1 5 1 4 2 9 3 14 1 2 2 2 4 1 1 0 2-1 3-1 13-6 24-14 36-21 4-3 8-5 12-7 0 0 0 0-1 0 0 1-1 2-1 2-10 8-21 16-32 22-6 3-11 6-17 8-2 0-3 3-3 5 1 1 1 3 2 5 1 2 2 3 5 2 1 0 3-1 4-1 13-3 25-7 37-14 0 0 1 0 1 0 1 0 2 0 2 0 0 1 1 2-1 2 0 1 0 2-1 2-2 2-3 3-5 4-12 5-23 12-37 13-1 0-2 1-2 2 0 4 2 5 6 4 9-1 16-5 23-8 7-3 13-7 20-10 5-3 5-4 1-8-2-3-4-5-5-9 1 0 1 0 3 1 6 3 11 7 16 12 2 2 4 2 6 0 1-1 1-2 2-2 7-8 16-13 25-18 10-5 19-11 28-16 2-2 4-3 6-5 2-2 3-5 2-7 0-3-2-3-5-3z m-153-269c-9 2-18 3-26 9-4 2-4 1-3 5 0 1 0 2 1 3 3 7 5 15 8 23 1 2 3 3 4 1 5-4 10-6 15-8 12-3 23-7 34-12 3-1 4-1 6 3-6 4-12 8-21 10-6 2-13 4-19 6-6 2-10 5-15 9-2 1-2 3 1 6 3-2 5-3 8-4 9-5 20-7 30-10 8-3 15-5 23-7 2-1 2-2 1-4-1-2-2-3-3-4-3-5-5-9-8-13-2-3-3-3-6-1-2 2-4 4-6 5-8 3-16 6-23 8-5 2-10 3-16 4-1 0-3 1-5-1 1-3 3-4 6-5 5-1 11-4 16-5 9-2 17-5 25-8 2-1 4-2 6-3 2-1 1-4-2-4 0-1-2-1-2 0-3 1-5 2-7 3-6 2-12 4-17 6-1 0-2 0-2 0-8 1-15 3-23 4-1 0-2 1-3 0 0-1 1-2 2-2 4-2 7-4 10-5 3-1 6-1 10-2 8-2 16-5 24-10 1 0 2 0 2-1 1-1 1-3-1-5-1-1-2-1-4 0-2 1-3 3-5 3-5 2-10 4-15 6z m67 92c-1 1-1 1-3 1-9 5-18 8-28 10-11 2-22 6-33 11-2 0-3 1-4 2-1 1-1 2-1 3 0 0 1 0 3 0 1 0 1 0 2 0 3-2 6-3 10-5 10-5 21-6 32-7 6 0 13-1 20-2 1 0 3 0 4-1 0 2 1 2 1 3 0 3 0 4-4 5-1 1-2 1-2 2-9 5-18 8-27 12-11 3-21 7-33 10 0 0-1 1-1 1 0 2 0 5 3 6 2 1 3 0 5-1 0 0 0 0-1 0 7-4 14-8 23-11 9-3 18-7 28-9 3-1 7-2 10-1 0 2 1 3 1 5-4 1-7 1-11 2-10 3-19 6-28 10-8 3-15 7-23 9-1 0-2 1-1 2 0 2 0 5 2 7 0 2 2 3 3 2 1-1 2-1 2-1 6-4 11-7 16-10 9-4 19-8 29-10 4-1 8-2 12-2 2 1 3 0 3-3-1-10-2-20-4-30-1-3-2-6-3-8 0-2-2-2-3-2z m-168 29c5-3 10-6 17-9 0 0 0 0-1 0 3-1 5-3 9-4 10-6 20-10 32-11 1 0 2-1 3-1 1-1 1-2-1-3-1-2-3-3-5-2-7 2-13 4-19 6-5 3-10 5-15 8-8 5-17 7-26 9-3 0-3 2-1 4 1 2 2 4 4 7 1 1 1 3 3 4 2 2 3 5 7 5 4 1 9 1 13 0 9-1 17-4 24-7 7-3 15-5 22-6 4 0 7 0 11 0 2 0 3-1 3-2 0-2-4-6-7-6-5-1-11 0-16 1-12 3-22 8-33 12-4 2-9 3-14 4-1 0-2 0-3 0 0-1 0-1 1-1 6-3 12-6 18-9 6-3 13-7 20-9 5-1 10-2 15-2 2-1 5 0 8 0 1-1 2-1 2-2 1 0 1-1-1-2-2-1-3-3-5-4-1-1-2-1-3-1-4 1-9 2-13 3-9 2-17 7-25 11-4 2-8 5-13 7-3 1-6 2-9 2-1 1-2 1-3-1 1 0 1 0 2 0z m311 218c-2-2-3-4-6-7-2-3-3-6-5-9-1-1-2-1-3-1-9 5-17 9-25 13-8 4-15 7-22 11-7 4-13 10-20 14-2 1-2 3 1 5 0-1 1-1 2-2 2-1 4-3 6-4 9-6 19-10 29-14 10-3 20-7 31-10 4-1 4-1 6 3-8 5-16 9-25 14-8 6-17 13-26 19-3 2-6 4-9 7-2 1-2 2 1 4 1 1 2 2 3 3 2 1 2 1 4-1 2-2 4-4 6-6 9-7 18-13 28-19 6-3 12-6 18-9 2-1 3-2 5-2 4-1 5-3 3-7-1 0-2-1-3-2z m14 35c3-2 3-3 2-7-2-2-3-2-6 0-2 1-3 3-5 5-2 2-5 4-7 7-9 7-17 14-25 22-3 2-6 4-9 5-3 2-3 4-1 6 2 2 3 2 7 0 5-4 11-8 17-13 10-6 21-11 33-13-4 3-8 5-13 7-2 1-3 1-4 2-7 5-14 9-22 14-3 2-6 4-9 7-3 2-2 2 1 6 1-1 2-2 3-3 4-2 7-5 11-7 5-2 10-4 16-6 8-3 17-7 25-12 1-1 2-3 1-5 0-5-5-8-8-13-1-1-2-1-3 0-2 1-4 1-6 2-5 3-10 6-15 9 5-5 10-9 17-13z m40 78c-1-4-2-9-4-13-1-3-2-6-3-9-2-4-4-4-7-2-7 4-15 8-23 12-6 2-12 4-18 7-1 0-3 2-3 2 1 2 2 4 4 5 1 2 3 1 4 0 3-2 6-4 9-5 9-3 17-6 26-7 1-1 2-1 4-1 0 1 0 1-1 1-2 1-3 2-4 2-7 3-14 6-21 9-3 2-5 3-8 4-1 1-2 1-1 3 0 1 1 2 4 2 1 0 2-1 2-1 7-3 13-6 20-8 4-1 9-2 13-2-2 1-4 2-8 4-6 3-13 6-20 7-2 0-3 1-4 1-1 1-2 3-2 3 2 1 3 3 6 4 1 1 3 0 4 0 8-4 17-8 27-10 4 0 4-2 4-5 0-1 0-2-1-3z m-367-431c-7 3-13 5-19 9-7 5-14 10-23 12 0 0 0 0 1 0-2 1-2 2-2 4 1 1 2 3 4 4 1 2 2 3 4 2 6-3 11-6 16-10 6-4 12-9 18-13 5-2 9-2 13 1-9 3-15 8-23 13-6 4-12 8-18 10-2 0-4 1-6 1-2 1-3 2-2 4 0 2 3 4 6 4 7-2 13-4 18-8 4-2 8-5 12-8 8-4 15-9 24-7 2 0 2-2 1-3-2-3-4-5-8-7-1-1-2-2-4-3-2-1-5-3-7-5-2-1-3-1-5 0z m150 36c-6 3-13 5-20 7-7 1-14 3-20 5-6 2-13 5-19 7 1 3-1 7 5 9 2-4 7-7 12-9 7-3 14-6 22-7 9-1 18-1 27-2 1 0 2 1 3 1 0 0 0 0-1 1-2 1-3 2-5 3-9 4-17 7-27 9-4 1-9 2-13 3-4 1-7 2-11 3-2 1-5 1-7 2-2 1-2 2-1 4 0 0 0 1 2 1 1 2 2 2 4 1 1-1 2-2 3-2 5-2 10-4 15-5 8-2 17-2 25-5 7-2 14-5 21-8 4-2 5-3 3-8-1-1-1-2-3-3-1-4-2-7-3-10-1-3-2-3-5-2-2 2-5 4-8 5z m-146 10c-8 5-17 8-26 9-1 0-2 0-2 0-2 0-2 1-2 3 0 2 1 3 3 5 1 2 2 4 3 5 1 3 3 5 4 7 1 2 3 2 5 1 12-3 25-7 36-12 7-3 13-6 20-9 0 0 0 0 1-1 1-1 1-3-2-3-1-1-2 0-3 0-2 1-4 2-6 3-10 3-20 7-31 8-6 1-12 2-18 3-4 1-4 0-6-4 1 0 1 0 3 0 0-1 1-1 1-1 11-2 22-6 31-12 7-4 13-8 20-11 3-1 3-3 2-5-2-4-3-4-7-3-2 2-4 3-6 4-7 5-13 9-20 13z m41 76c-7 3-15 6-24 6-1 0-2 0-3 1 0 0-1 1-1 2 0 2 4 5 8 5 10-3 20-6 29-10 11-5 21-12 33-14 2-1 3-2 2-4-1-2-3-2-6-3-7-1-15 0-23 1-7 2-14 4-21 6-5 1-10 3-15 4-3 1-7 2-11 1 0 0-1 1-2 1-1 0-2 1-2 2 1 3 5 6 9 6 1-1 1-1 2-1 11-3 21-7 31-10 5-2 10-3 15-4-2 1-3 2-6 2-5 3-10 6-16 9z m21-168c-2 2-2 2-2 5 2 7 3 15 6 22 1 3 2 3 5 2 8-5 15-9 25-10 6-1 13-4 18-7 1-1 2-2 3-2-2-3-3-2-6-2-6 2-11 4-17 5-8 2-17 3-25 4-1 0-2 0-3-1 0 0 0-2 2-2 1-1 2-3 3-4 6-3 12-5 18-5 6 0 11 0 16 0 1 0 3-1 4-1 0-1 0-2-2-3-1-3-3-4-7-4-3 1-5 2-8 2-8 1-15 3-23 5-1 1-2 1-3 1 1-1 1-1 2-1 8-7 18-12 29-13 1 0 2-1 2-1 1-2 0-2-2-3-3-2-5-1-8 0-10 2-19 7-28 13z m196 535c-3 2-7 3-11 5-7 3-13 6-20 10-5 2-10 5-15 7-4 2-4 4-3 8 1 2 2 3 5 1 3-1 6-3 8-5 8-4 16-9 24-13 4-2 8-4 12-5 0 0 0 0-1 1 0 0-1 1-2 2-2 2-4 3-7 5-4 3-8 5-12 8-7 3-14 7-21 9-1 0-1 0-1 1-1 0-2 1-2 2 0 1 2 2 3 2 1 0 3 0 4-1 8-3 16-6 24-9 6-3 12-6 18-9 2-1 3-1 3-3 0-5 0-10-3-14-1-2-2-3-4-2z m-293-513c-8-5-16-8-25-11-4-1-7-2-11-3-3 0-6 0-9 1-3 1-5 4-4 7 1 3 2 5 5 8 3-1 5-1 7-2 3-1 6-2 9-3 3-1 6-2 9-2 1-1 3 0 5 1-2 2-4 2-7 3-6 3-12 6-19 6-1-1-3 0-3 2 2 1 4 3 7 3 4-1 7-1 10-2 5-1 10-3 15-5 2-1 5-1 8 0-2 2-3 2-6 3-7 4-13 7-21 7-2 0-3 0-5 1-1 0-2 1-2 1 0 1 1 2 2 2 2 3 5 3 8 2 3-1 6-2 8-3 2-1 4-1 5-2 2-1 3-2 5-3 3-2 7-3 10-5 1-1 3-2 3-3 0-2-2-2-4-3z m2 25c-2 1-3 2-6 3-3 3-8 5-12 6-5 2-6 3-2 7 2 2 3 2 6 1 6-5 13-9 20-13 5-4 11-6 17-7 3 0 4-1 5-3 0 0 0-1-2-2-2-2-5-4-7-5-2-2-5-3-7-4-3-1-6-1-9 1-4 2-8 5-12 7-5 3-10 5-16 6-2 0-3 0-4 0-1 1-2 2-2 2-1 1 0 2 2 3 0 1 1 1 1 2 2 2 3 3 6 1 3-2 6-4 10-6 6-3 13-7 20-10 2-1 5-1 8 0-3 3-5 4-9 6-3 2-6 3-8 5z m88-67c1 1 3 1 4 0 3-3 8-4 12-6 2-1 6-1 9-2 1 0 2 1 3 1-2 2-4 2-7 3-5 2-9 5-14 7-7 4-7 4-5 11 0 1 1 2 3 3 0 0 2-1 2-2 5-6 12-10 19-12 3-2 6-2 10-4-1-1-1-2-3-3-2-3-3-5-5-7-1-2-3-3-5-3-4 1-9 1-13 4-3 2-6 3-10 4-1-4-1-5 3-7 2-1 4-2 6-3 4-1 7-2 11-3-1-2-1-3-4-3-4-1-8-2-12-2-3 0-5 1-6 3-2 5-3 10-2 15 1 2 2 4 5 6z m211 324c-3-3-3-3-7 0-3 3-5 6-8 8-7 6-15 10-22 15-9 4-18 9-26 15-3 3-6 5-9 8-2 2-2 3 1 5 1 0 2 1 2 1 1 0 1 0 1 0 5-7 11-11 19-15 3-1 6-3 9-4 10-6 20-11 30-17 5-2 9-6 13-9 2-1 2-2 1-4-1-1-2-2-5-3z m27 33c-1-2-2-3-5-2-2 1-3 2-5 3-6 2-11 5-17 7 0 0 0 1 1 1-3 1-6 3-11 5-12 6-22 14-33 23-1 1-2 2-4 3-1 1-1 3 2 5 2 1 4 1 5 0 6-7 13-12 20-17 6-4 13-7 20-11 8-4 16-8 25-11 4-1 4-1 3-5-1-1-1-1-2-1z m68 159c3 0 3-1 3-4 0-1 0-3-2-5-2-1-3 0-5 1-4 2-9 4-14 6-2 1-5 2-7 3-3 1-4 3-1 5 1 3 3 5 6 7 2 2 4 3 6 1 1-1 3-1 4-1 3-1 6-2 9-2-2 5-8 3-12 6 1 4 3 5 7 6 3 2 7 0 8-2 1-5 1-11 2-16 0-2-2-3-5-2-5 2-10 3-15 3-2 1-4 0-6-1 1-1 2-1 4-1 6-2 12-3 18-3z m-202-388c-7 3-13 6-20 8-5 1-11 2-17 3-9 1-18 3-27 8-2 1-2 2-2 5 1 1 2 2 3 3 2-1 3-1 4-2 5-3 11-5 17-7 11-2 22-4 33-7 6-2 11-4 17-6 2-1 3-2 1-4 0-1 0-1-2-2-1-3-2-3-4-1-1 0-2 2-3 2z m124 218c-2 0-4 1-6 1-10 5-20 8-30 11-11 4-23 7-33 12-5 2-9 6-13 8-1 1-1 2-1 3 0 4 5 5 8 3 6-5 12-9 18-12 2-1 4-2 6-3 11-4 22-8 33-11 6-3 12-5 18-7 1-1 2-1 2-2 0-1 0-2-1-2 0-1-1-1-2-1z m-153-256c-14 6-29 11-44 15-3 1-4 2-2 5 2 4 3 5 7 3 4-2 7-4 10-6 4-2 7-4 11-5 13-3 27-7 40-11 3 0 3-2 1-4-1-1-2-2-3-3-2-2-3-2-5-1-5 2-10 5-15 7z m45 96c-4 0-8 1-12 2-8 2-16 5-23 8-3 1-6 2-8 3-3 2-6 4-9 5 0 0 0 0-1 0-2 1-5 2-7 4-1 0-2 1-2 2 1 2 2 1 4 1 3-1 5-2 8-3 10-5 20-8 31-10 6-1 13-1 19-1 1 0 3-1 3-1 2-2 1-8-2-9 0-1-1-1-2-1z m136 209c-6 3-11 5-17 8 0 0 0 0 1 0-2 1-3 2-6 3-11 6-20 13-29 22-2 1-4 3-5 5-2 2-2 3 1 5 3 2 4 2 5 0 2-2 3-3 4-5 4-4 8-9 13-13 9-7 20-12 30-17 2-1 4-1 5-2 3-1 3-3 2-5 0-1-2-2-5-1z m32 48c-2-2-4-2-7 0-4 3-9 6-14 9-7 4-15 8-23 11 0 0 0 0-1 0 0 0-1 1-1 1-4 2-7 4-10 6-1 1-1 2-1 3 1 0 2 0 3 0 1 0 1 0 1 0 6-3 11-6 17-8 6-2 12-5 19-6 6 0 12-2 17-5 2-1 3-3 2-5 0-2-1-4-3-6z m-340-349c-4 2-7 5-11 7-7 5-15 9-24 10-2 1-3 1-3 3 1 1 2 2 4 2 2 0 3 0 4 0 10-2 19-6 28-11 5-3 11-7 17-10 0 0-1 0-2-1 3 0 5-1 8-2 1-1 2-2 2-2 0-1-1-2-3-2-1-1-3-1-4 0-6 1-11 3-16 6z m-18 53c0 0-1 1-3 1 1 2 2 4 4 6 1 1 2 1 4 1 5-3 10-5 15-7 12-4 24-9 36-13 3-1 5-2 8-3 1 0 3-1 3-2 0-4-4-6-8-5-1 1-1 1-1 1-7 3-13 7-20 10-12 5-25 8-38 11z m333 258c-4 1-7 3-11 4-7 4-13 8-19 13-6 4-12 9-18 14-2 2-5 3-7 6-2 1-2 2 1 4 1 1 2 2 2 3 2 1 3 1 5 0 5-5 9-11 14-16 3-3 7-7 10-11 6-5 11-8 18-11 2-1 4-1 6-3 1 0 1-1 1-2-1-1-2-1-3-1z m-64 139c-6 3-12 6-17 8 0 0 0 1 1 1-5 2-9 4-15 6-5 3-10 6-14 10-2 0-3 2-4 3-1 1-1 4 2 4 1 0 3 0 3-1 7-5 15-9 22-12 8-4 15-7 23-11 2-1 3-1 4-2 1-1 2-2 2-3-1-4-3-5-7-3z m-31 67c1 0 2 0 4-1 10-6 20-13 31-19 4-2 5-5 6-9 0-1 0-2-1-3-1 0-1 0-2-1-1 1-3 2-4 3-2 2-3 4-5 5-7 5-14 10-22 14-3 1-7 3-10 4-3 2-4 3-3 5 2 3 3 4 7 2z m10 23c3 2 6 2 8 0 4-6 8-11 11-17 1-2 2-3-1-5-1-1-3 0-4 1-6 4-12 6-19 7-4 0-5 2-3 5 2 3 4 6 8 9z m113-175c-2 4-5 7-10 9-9 4-17 8-26 13-3 1-6 3-9 5-2 1-2 2 1 4 1 0 2 0 2 0 2-1 4-2 5-3 10-5 21-10 31-15 4-1 8-4 12-6 1-3 0-5-2-7-2-2-3-2-5 0z m-121 160c2 0 3-1 5-1 8-2 15-6 23-9 4-2 7-6 8-10 1-1 1-2 1-3-1-1-1-2-3-2-1-1-2 0-3 1-1 1-2 2-4 3-6 4-13 8-19 13 0-1 0-1 1-1-3 1-6 3-10 4-1 1-2 2-2 3 0 1 2 2 4 2z m-111-446c2-1 4-2 7-3 5-2 9-4 13-6 3-2 6-3 9-4 1 0 2-1 2-3-1 0-2 0-4 0-4 1-7 3-11 4-9 2-18 5-27 7-1 0-2 0-4 1-1 0-2 2-1 3 1 2 2 3 5 5 4-2 8-3 12-4z m122 245c1 2 3 0 4 0 6-4 11-7 16-10 5-3 10-7 15-10 1-1 1-1 2-2-3-2-4 0-7 1-11 6-21 12-33 14-2 0-3 1-2 2 1 2 2 4 5 6z m38-84c-1-1-2 0-4 1-1 1-2 3-3 4-4 4-9 6-14 9-3 2-7 4-11 6 0 0 0 1 1 1 1 0 1 0 2 0 2 0 5-1 7-2 8-3 17-6 25-9 1 0 1 0 2-1 3-1 3-3 1-6-2-1-4-2-7-3z m25 148c5-3 11-5 17-9 4-2 8-4 11-8 0 0 0-1 1-2-1 0-1 0-2-1-1 1-2 1-3 2-3 1-6 3-9 4-6 2-13 4-19 7-1 0-3 1-5 2 2 2 3 3 5 4 1 2 2 2 4 1z m-170-264c3-2 7-4 11-6 4-2 7-4 10-7-7 0-31 10-36 14 1 2 3 4 6 7 3-3 7-6 10-8z m112 373c1-1 2-2 2-5-3 1-5 2-8 3-6 2-12 5-18 5-1 1-2 1-3 1-1 1-2 2-1 4 1 3 3 5 5 5 1 0 1 0 1-1 7-4 15-8 22-12z m-28-198c0 1 1 1 2 1 9-9 20-14 29-21 0-1 0-1-1-2-1 1-3 1-4 1-1 1-2 1-4 2-8 4-16 8-23 14-1 0-2 2-2 3 0 1 1 2 4 2z m-198-274c1 0 2 0 4 0 5-2 11-3 17-5 1 0 4 0 4-2 0-1-1-3-3-4-1-1-1-1-2-2-1 1-1 1-2 1-5 3-9 7-15 9-2 0-3 1-3 3z"/></g>
 </svg>